<svg id="SvgjsSvg1269" xmlns="http://www.w3.org/2000/svg" version="1.1" xmlns:xlink="http://www.w3.org/1999/xlink" xmlns:svgjs="http://svgjs.com/svgjs" width="697.5" height="764.5"><defs id="SvgjsDefs1270"><marker id="SvgjsMarker1321" markerWidth="16" markerHeight="12" refX="16" refY="6" viewBox="0 0 16 12" orient="auto" markerUnits="userSpaceOnUse"><path id="SvgjsPath1322" d="M0 2L14 6L0 11L0 2 " fill="#323232" stroke="#323232" stroke-width="2"></path></marker><marker id="SvgjsMarker1325" markerWidth="16" markerHeight="12" refX="16" refY="6" viewBox="0 0 16 12" orient="auto" markerUnits="userSpaceOnUse"><path id="SvgjsPath1326" d="M0 2L14 6L0 11L0 2 " fill="#323232" stroke="#323232" stroke-width="2"></path></marker><marker id="SvgjsMarker1329" markerWidth="16" markerHeight="12" refX="16" refY="6" viewBox="0 0 16 12" orient="auto" markerUnits="userSpaceOnUse"><path id="SvgjsPath1330" d="M0 2L14 6L0 11L0 2 " fill="#323232" stroke="#323232" stroke-width="2"></path></marker><marker id="SvgjsMarker1333" markerWidth="16" markerHeight="12" refX="16" refY="6" viewBox="0 0 16 12" orient="auto" markerUnits="userSpaceOnUse"><path id="SvgjsPath1334" d="M0 2L14 6L0 11L0 2 " fill="#323232" stroke="#323232" stroke-width="2"></path></marker><marker id="SvgjsMarker1337" markerWidth="16" markerHeight="12" refX="16" refY="6" viewBox="0 0 16 12" orient="auto" markerUnits="userSpaceOnUse"><path id="SvgjsPath1338" d="M0 2L14 6L0 11L0 2 " fill="#323232" stroke="#323232" stroke-width="2"></path></marker><marker id="SvgjsMarker1353" markerWidth="16" markerHeight="12" refX="16" refY="6" viewBox="0 0 16 12" orient="auto" markerUnits="userSpaceOnUse"><path id="SvgjsPath1354" d="M0 2L14 6L0 11L0 2 " fill="#323232" stroke="#323232" stroke-width="2"></path></marker><marker id="SvgjsMarker1365" markerWidth="16" markerHeight="12" refX="16" refY="6" viewBox="0 0 16 12" orient="auto" markerUnits="userSpaceOnUse"><path id="SvgjsPath1366" d="M0 2L14 6L0 11L0 2 " fill="#323232" stroke="#323232" stroke-width="2"></path></marker><marker id="SvgjsMarker1381" markerWidth="16" markerHeight="12" refX="16" refY="6" viewBox="0 0 16 12" orient="auto" markerUnits="userSpaceOnUse"><path id="SvgjsPath1382" d="M0 2L14 6L0 11L0 2 " fill="#323232" stroke="#323232" stroke-width="2"></path></marker><marker id="SvgjsMarker1399" markerWidth="16" markerHeight="12" refX="16" refY="6" viewBox="0 0 16 12" orient="auto" markerUnits="userSpaceOnUse"><path id="SvgjsPath1400" d="M0 2L14 6L0 11L0 2 " fill="#323232" stroke="#323232" stroke-width="2"></path></marker></defs><g id="SvgjsG1271" transform="translate(25,25)"><path id="SvgjsPath1272" d="M0 11.11111111111111L88.88888888888889 11.11111111111111L88.88888888888889 100L0 100L0 11.11111111111111Z " stroke="rgba(50,50,50,1)" stroke-width="2" fill-opacity="1" fill="#ffffff"></path><path id="SvgjsPath1273" d="M0 11.11111111111111L11.11111111111111 0L100 0L100 88.88888888888889L88.88888888888889 100L88.88888888888889 11.11111111111111L0 11.11111111111111ZM88.88888888888889 11.11111111111111L100 0 " stroke="rgba(50,50,50,1)" stroke-width="2" fill-opacity="1" fill="#e6e6e6"></path><path id="SvgjsPath1274" d="M0 0L100 0L100 100L0 100Z " stroke="none" fill="none"></path><g id="SvgjsG1275"><text id="SvgjsText1276" font-family="微软雅黑" text-anchor="middle" font-size="13px" width="47" fill="#323232" font-weight="700" align="middle" font-style="" opacity="1" y="45.605555555555554" transform="rotate(0)"><tspan id="SvgjsTspan1277" dy="16" x="45"><tspan id="SvgjsTspan1278" style="text-decoration:;">Service</tspan></tspan></text></g></g><g id="SvgjsG1279" transform="translate(286.25,25)"><path id="SvgjsPath1280" d="M0 11.11111111111111L88.88888888888889 11.11111111111111L88.88888888888889 100L0 100L0 11.11111111111111Z " stroke="rgba(50,50,50,1)" stroke-width="2" fill-opacity="1" fill="#ffffff"></path><path id="SvgjsPath1281" d="M0 11.11111111111111L11.11111111111111 0L100 0L100 88.88888888888889L88.88888888888889 100L88.88888888888889 11.11111111111111L0 11.11111111111111ZM88.88888888888889 11.11111111111111L100 0 " stroke="rgba(50,50,50,1)" stroke-width="2" fill-opacity="1" fill="#e6e6e6"></path><path id="SvgjsPath1282" d="M0 0L100 0L100 100L0 100Z " stroke="none" fill="none"></path><g id="SvgjsG1283"><text id="SvgjsText1284" font-family="微软雅黑" text-anchor="middle" font-size="13px" width="47" fill="#323232" font-weight="700" align="middle" font-style="" opacity="1" y="45.605555555555554" transform="rotate(0)"><tspan id="SvgjsTspan1285" dy="16" x="45"><tspan id="SvgjsTspan1286" style="text-decoration:;">Service</tspan></tspan></text></g></g><g id="SvgjsG1287" transform="translate(155.625,25)"><path id="SvgjsPath1288" d="M0 11.11111111111111L88.88888888888889 11.11111111111111L88.88888888888889 100L0 100L0 11.11111111111111Z " stroke="rgba(50,50,50,1)" stroke-width="2" fill-opacity="1" fill="#ffffff"></path><path id="SvgjsPath1289" d="M0 11.11111111111111L11.11111111111111 0L100 0L100 88.88888888888889L88.88888888888889 100L88.88888888888889 11.11111111111111L0 11.11111111111111ZM88.88888888888889 11.11111111111111L100 0 " stroke="rgba(50,50,50,1)" stroke-width="2" fill-opacity="1" fill="#e6e6e6"></path><path id="SvgjsPath1290" d="M0 0L100 0L100 100L0 100Z " stroke="none" fill="none"></path><g id="SvgjsG1291"><text id="SvgjsText1292" font-family="微软雅黑" text-anchor="middle" font-size="13px" width="47" fill="#323232" font-weight="700" align="middle" font-style="" opacity="1" y="45.605555555555554" transform="rotate(0)"><tspan id="SvgjsTspan1293" dy="16" x="45"><tspan id="SvgjsTspan1294" style="text-decoration:;">Service</tspan></tspan></text></g></g><g id="SvgjsG1295" transform="translate(416.875,25)"><path id="SvgjsPath1296" d="M0 11.11111111111111L88.88888888888889 11.11111111111111L88.88888888888889 100L0 100L0 11.11111111111111Z " stroke="rgba(50,50,50,1)" stroke-width="2" fill-opacity="1" fill="#ffffff"></path><path id="SvgjsPath1297" d="M0 11.11111111111111L11.11111111111111 0L100 0L100 88.88888888888889L88.88888888888889 100L88.88888888888889 11.11111111111111L0 11.11111111111111ZM88.88888888888889 11.11111111111111L100 0 " stroke="rgba(50,50,50,1)" stroke-width="2" fill-opacity="1" fill="#e6e6e6"></path><path id="SvgjsPath1298" d="M0 0L100 0L100 100L0 100Z " stroke="none" fill="none"></path><g id="SvgjsG1299"><text id="SvgjsText1300" font-family="微软雅黑" text-anchor="middle" font-size="13px" width="47" fill="#323232" font-weight="700" align="middle" font-style="" opacity="1" y="45.605555555555554" transform="rotate(0)"><tspan id="SvgjsTspan1301" dy="16" x="45"><tspan id="SvgjsTspan1302" style="text-decoration:;">Service</tspan></tspan></text></g></g><g id="SvgjsG1303" transform="translate(547.5,25)"><path id="SvgjsPath1304" d="M0 11.11111111111111L88.88888888888889 11.11111111111111L88.88888888888889 100L0 100L0 11.11111111111111Z " stroke="rgba(50,50,50,1)" stroke-width="2" fill-opacity="1" fill="#ffffff"></path><path id="SvgjsPath1305" d="M0 11.11111111111111L11.11111111111111 0L100 0L100 88.88888888888889L88.88888888888889 100L88.88888888888889 11.11111111111111L0 11.11111111111111ZM88.88888888888889 11.11111111111111L100 0 " stroke="rgba(50,50,50,1)" stroke-width="2" fill-opacity="1" fill="#e6e6e6"></path><path id="SvgjsPath1306" d="M0 0L100 0L100 100L0 100Z " stroke="none" fill="none"></path><g id="SvgjsG1307"><text id="SvgjsText1308" font-family="微软雅黑" text-anchor="middle" font-size="13px" width="47" fill="#323232" font-weight="700" align="middle" font-style="" opacity="1" y="45.605555555555554" transform="rotate(0)"><tspan id="SvgjsTspan1309" dy="16" x="45"><tspan id="SvgjsTspan1310" style="text-decoration:;">Service</tspan></tspan></text></g></g><g id="SvgjsG1311" transform="translate(261.25,229.83333333333331)"><path id="SvgjsPath1312" d="M0 11.11111111111111L133.33333333333331 11.11111111111111L133.33333333333331 100L0 100L0 11.11111111111111Z " stroke="rgba(50,50,50,1)" stroke-width="2" fill-opacity="1" fill="#ffffff"></path><path id="SvgjsPath1313" d="M0 11.11111111111111L16.666666666666664 0L150 0L150 88.88888888888889L133.33333333333331 100L133.33333333333331 11.11111111111111L0 11.11111111111111ZM133.33333333333331 11.11111111111111L150 0 " stroke="rgba(50,50,50,1)" stroke-width="2" fill-opacity="1" fill="#e6e6e6"></path><path id="SvgjsPath1314" d="M0 0L150 0L150 100L0 100Z " stroke="none" fill="none"></path><g id="SvgjsG1315"><text id="SvgjsText1316" font-family="微软雅黑" text-anchor="middle" font-size="13px" width="99" fill="#323232" font-weight="700" align="middle" font-style="" opacity="1" y="45.605555555555554" transform="rotate(0)"><tspan id="SvgjsTspan1317" dy="16" x="67.5"><tspan id="SvgjsTspan1318" style="text-decoration:;">elastic-transfer</tspan></tspan></text></g></g><g id="SvgjsG1319"><path id="SvgjsPath1320" d="M75 125L75 177.41666666666663L336.25 177.41666666666663L336.25 229.83333333333331 " stroke="#323232" stroke-width="2" fill="none" marker-end="url(#SvgjsMarker1321)"></path></g><g id="SvgjsG1323"><path id="SvgjsPath1324" d="M205.625 125L205.625 177.41666666666663L336.25 177.41666666666663L336.25 229.83333333333331 " stroke="#323232" stroke-width="2" fill="none" marker-end="url(#SvgjsMarker1325)"></path></g><g id="SvgjsG1327"><path id="SvgjsPath1328" d="M336.25 125L336.25 177.41666666666663L336.25 177.41666666666663L336.25 229.83333333333331 " stroke="#323232" stroke-width="2" fill="none" marker-end="url(#SvgjsMarker1329)"></path></g><g id="SvgjsG1331"><path id="SvgjsPath1332" d="M466.875 125L466.875 177.41666666666663L336.25 177.41666666666663L336.25 229.83333333333331 " stroke="#323232" stroke-width="2" fill="none" marker-end="url(#SvgjsMarker1333)"></path></g><g id="SvgjsG1335"><path id="SvgjsPath1336" d="M597.5 125L597.5 177.41666666666663L336.25 177.41666666666663L336.25 229.83333333333331 " stroke="#323232" stroke-width="2" fill="none" marker-end="url(#SvgjsMarker1337)"></path><rect id="SvgjsRect1339" width="62" height="16" x="305" y="171.5" fill="#ffffff"></rect><text id="SvgjsText1340" font-family="微软雅黑" text-anchor="middle" font-size="13px" width="62" fill="#323232" font-weight="400" align="top" font-style="" opacity="1" y="169.55" transform="rotate(0)"><tspan id="SvgjsTspan1341" dy="16" x="336"><tspan id="SvgjsTspan1342" style="text-decoration:;">Push data</tspan></tspan></text></g><g id="SvgjsG1343" transform="translate(256.25,434.66666666666663)"><path id="SvgjsPath1344" d="M0 50L80 0L160 50L80 100Z " stroke="rgba(50,50,50,1)" stroke-width="2" fill-opacity="1" fill="#ffffff"></path><g id="SvgjsG1345"><text id="SvgjsText1346" font-family="微软雅黑" text-anchor="middle" font-size="13px" width="91" fill="#323232" font-weight="400" align="middle" font-style="" opacity="1" y="32.55" transform="rotate(0)"><tspan id="SvgjsTspan1347" dy="16" x="80.5"><tspan id="SvgjsTspan1348" style="text-decoration:;">If elasticsearch</tspan></tspan><tspan id="SvgjsTspan1349" dy="16" x="80.5"><tspan id="SvgjsTspan1350" style="text-decoration:;">online</tspan></tspan></text></g></g><g id="SvgjsG1351"><path id="SvgjsPath1352" d="M336.25 329.8333333333333L336.25 382.25L336.25 382.25L336.25 434.66666666666663 " stroke="#323232" stroke-width="2" fill="none" marker-end="url(#SvgjsMarker1353)"></path></g><g id="SvgjsG1355" transform="translate(547.5,434.66666666666663)"><path id="SvgjsPath1356" d="M0 11.11111111111111L88.88888888888889 11.11111111111111L88.88888888888889 100L0 100L0 11.11111111111111Z " stroke="rgba(50,50,50,1)" stroke-width="2" fill-opacity="1" fill="#ffffff"></path><path id="SvgjsPath1357" d="M0 11.11111111111111L11.11111111111111 0L100 0L100 88.88888888888889L88.88888888888889 100L88.88888888888889 11.11111111111111L0 11.11111111111111ZM88.88888888888889 11.11111111111111L100 0 " stroke="rgba(50,50,50,1)" stroke-width="2" fill-opacity="1" fill="#e6e6e6"></path><path id="SvgjsPath1358" d="M0 0L100 0L100 100L0 100Z " stroke="none" fill="none"></path><g id="SvgjsG1359"><text id="SvgjsText1360" font-family="微软雅黑" text-anchor="middle" font-size="13px" width="24" fill="#323232" font-weight="700" align="middle" font-style="" opacity="1" y="45.605555555555554" transform="rotate(0)"><tspan id="SvgjsTspan1361" dy="16" x="45"><tspan id="SvgjsTspan1362" style="text-decoration:;">MQ</tspan></tspan></text></g></g><g id="SvgjsG1363"><path id="SvgjsPath1364" d="M416.25 484.66666666666663L481.875 484.66666666666663L481.875 484.66666666666663L547.5 484.66666666666663 " stroke-dasharray="8,5" stroke="#323232" stroke-width="2" fill="none" marker-end="url(#SvgjsMarker1365)"></path><rect id="SvgjsRect1367" width="19" height="16" x="472.375" y="476.66666666666663" fill="#ffffff"></rect><text id="SvgjsText1368" font-family="微软雅黑" text-anchor="middle" font-size="13px" width="19" fill="#323232" font-weight="400" align="top" font-style="" opacity="1" y="474.71666666666664" transform="rotate(0)"><tspan id="SvgjsTspan1369" dy="16" x="481.875"><tspan id="SvgjsTspan1370" style="text-decoration:;">No</tspan></tspan></text></g><g id="SvgjsG1371" transform="translate(261.25,639.5)"><path id="SvgjsPath1372" d="M0 11.11111111111111L133.33333333333331 11.11111111111111L133.33333333333331 100L0 100L0 11.11111111111111Z " stroke="rgba(50,50,50,1)" stroke-width="2" fill-opacity="1" fill="#ffffff"></path><path id="SvgjsPath1373" d="M0 11.11111111111111L16.666666666666664 0L150 0L150 88.88888888888889L133.33333333333331 100L133.33333333333331 11.11111111111111L0 11.11111111111111ZM133.33333333333331 11.11111111111111L150 0 " stroke="rgba(50,50,50,1)" stroke-width="2" fill-opacity="1" fill="#e6e6e6"></path><path id="SvgjsPath1374" d="M0 0L150 0L150 100L0 100Z " stroke="none" fill="none"></path><g id="SvgjsG1375"><text id="SvgjsText1376" font-family="微软雅黑" text-anchor="middle" font-size="13px" width="84" fill="#323232" font-weight="700" align="middle" font-style="" opacity="1" y="45.605555555555554" transform="rotate(0)"><tspan id="SvgjsTspan1377" dy="16" x="67.5"><tspan id="SvgjsTspan1378" style="text-decoration:;">elasticsearch</tspan></tspan></text></g></g><g id="SvgjsG1379"><path id="SvgjsPath1380" d="M336.25 534.6666666666666L336.25 587.0833333333333L336.25 587.0833333333333L336.25 639.5 " stroke="#323232" stroke-width="2" fill="none" marker-end="url(#SvgjsMarker1381)"></path><rect id="SvgjsRect1383" width="62" height="16" x="305.24999999999994" y="579.0833333333333" fill="#ffffff"></rect><text id="SvgjsText1384" font-family="微软雅黑" text-anchor="middle" font-size="13px" width="62" fill="#323232" font-weight="400" align="top" font-style="" opacity="1" y="577.1333333333332" transform="rotate(0)"><tspan id="SvgjsTspan1385" dy="16" x="336.24999999999994"><tspan id="SvgjsTspan1386" style="text-decoration:;">Push data</tspan></tspan></text></g><g id="SvgjsG1387" transform="translate(522.5,229.83333333333331)"><path id="SvgjsPath1388" d="M18 0Q9 0 9 9L9 41Q9 50 0 50Q9 50 9 59L9 91Q9 100 18 100 " stroke="rgba(50,50,50,1)" stroke-width="2" fill="none"></path><path id="SvgjsPath1389" d="M132 100Q141 100 141 91L141 59Q141 50 150 50Q141 50 141 41L141 9Q141 0 132 0 " stroke="rgba(50,50,50,1)" stroke-width="2" fill="none"></path><path id="SvgjsPath1390" d="M0 0L150 0L150 100L0 100Z " stroke="none" fill="none"></path><g id="SvgjsG1391"><text id="SvgjsText1392" font-family="微软雅黑" text-anchor="middle" font-size="13px" width="119" fill="#323232" font-weight="400" align="middle" font-style="" opacity="1" y="32.05" transform="rotate(0)"><tspan id="SvgjsTspan1393" dy="16" x="75.5"><tspan id="SvgjsTspan1394" style="text-decoration:;">Define the pipeline</tspan></tspan><tspan id="SvgjsTspan1395" dy="16" x="75.5"><tspan id="SvgjsTspan1396" style="text-decoration:;"> Validate Data</tspan></tspan></text></g></g><g id="SvgjsG1397"><path id="SvgjsPath1398" d="M411.25 279.8333333333333L466.875 279.8333333333333L466.875 279.8333333333333L522.5 279.8333333333333 " stroke-dasharray="8,5" stroke="#323232" stroke-width="2" fill="none" marker-end="url(#SvgjsMarker1399)"></path></g></svg>