<svg id="SvgjsSvg1000" xmlns="http://www.w3.org/2000/svg" version="1.1" xmlns:xlink="http://www.w3.org/1999/xlink" xmlns:svgjs="http://svgjs.com/svgjs" width="697.5" height="764.5"><defs id="SvgjsDefs1001"><marker id="SvgjsMarker1057" markerWidth="16" markerHeight="12" refX="16" refY="6" viewBox="0 0 16 12" orient="auto" markerUnits="userSpaceOnUse"><path id="SvgjsPath1058" d="M0 2L14 6L0 11L0 2 " fill="#323232" stroke="#323232" stroke-width="2"></path></marker><marker id="SvgjsMarker1061" markerWidth="16" markerHeight="12" refX="16" refY="6" viewBox="0 0 16 12" orient="auto" markerUnits="userSpaceOnUse"><path id="SvgjsPath1062" d="M0 2L14 6L0 11L0 2 " fill="#323232" stroke="#323232" stroke-width="2"></path></marker><marker id="SvgjsMarker1065" markerWidth="16" markerHeight="12" refX="16" refY="6" viewBox="0 0 16 12" orient="auto" markerUnits="userSpaceOnUse"><path id="SvgjsPath1066" d="M0 2L14 6L0 11L0 2 " fill="#323232" stroke="#323232" stroke-width="2"></path></marker><marker id="SvgjsMarker1069" markerWidth="16" markerHeight="12" refX="16" refY="6" viewBox="0 0 16 12" orient="auto" markerUnits="userSpaceOnUse"><path id="SvgjsPath1070" d="M0 2L14 6L0 11L0 2 " fill="#323232" stroke="#323232" stroke-width="2"></path></marker><marker id="SvgjsMarker1073" markerWidth="16" markerHeight="12" refX="16" refY="6" viewBox="0 0 16 12" orient="auto" markerUnits="userSpaceOnUse"><path id="SvgjsPath1074" d="M0 2L14 6L0 11L0 2 " fill="#323232" stroke="#323232" stroke-width="2"></path></marker><marker id="SvgjsMarker1089" markerWidth="16" markerHeight="12" refX="16" refY="6" viewBox="0 0 16 12" orient="auto" markerUnits="userSpaceOnUse"><path id="SvgjsPath1090" d="M0 2L14 6L0 11L0 2 " fill="#323232" stroke="#323232" stroke-width="2"></path></marker><marker id="SvgjsMarker1101" markerWidth="16" markerHeight="12" refX="16" refY="6" viewBox="0 0 16 12" orient="auto" markerUnits="userSpaceOnUse"><path id="SvgjsPath1102" d="M0 2L14 6L0 11L0 2 " fill="#323232" stroke="#323232" stroke-width="2"></path></marker><marker id="SvgjsMarker1117" markerWidth="16" markerHeight="12" refX="16" refY="6" viewBox="0 0 16 12" orient="auto" markerUnits="userSpaceOnUse"><path id="SvgjsPath1118" d="M0 2L14 6L0 11L0 2 " fill="#323232" stroke="#323232" stroke-width="2"></path></marker><marker id="SvgjsMarker1135" markerWidth="16" markerHeight="12" refX="16" refY="6" viewBox="0 0 16 12" orient="auto" markerUnits="userSpaceOnUse"><path id="SvgjsPath1136" d="M0 2L14 6L0 11L0 2 " fill="#323232" stroke="#323232" stroke-width="2"></path></marker></defs><g id="SvgjsG1007" transform="translate(25,25)"><path id="SvgjsPath1008" d="M0 11.11111111111111L88.88888888888889 11.11111111111111L88.88888888888889 100L0 100L0 11.11111111111111Z " stroke="rgba(50,50,50,1)" stroke-width="2" fill-opacity="1" fill="#ffffff"></path><path id="SvgjsPath1009" d="M0 11.11111111111111L11.11111111111111 0L100 0L100 88.88888888888889L88.88888888888889 100L88.88888888888889 11.11111111111111L0 11.11111111111111ZM88.88888888888889 11.11111111111111L100 0 " stroke="rgba(50,50,50,1)" stroke-width="2" fill-opacity="1" fill="#e6e6e6"></path><path id="SvgjsPath1010" d="M0 0L100 0L100 100L0 100Z " stroke="none" fill="none"></path><g id="SvgjsG1011"><text id="SvgjsText1012" font-family="微软雅黑" text-anchor="middle" font-size="13px" width="47" fill="#323232" font-weight="700" align="middle" font-style="" opacity="1" y="45.605555555555554" transform="rotate(0)"><tspan id="SvgjsTspan1013" dy="16" x="45"><tspan id="SvgjsTspan1014" style="text-decoration:;">Service</tspan></tspan></text></g></g><g id="SvgjsG1015" transform="translate(286.25,25)"><path id="SvgjsPath1016" d="M0 11.11111111111111L88.88888888888889 11.11111111111111L88.88888888888889 100L0 100L0 11.11111111111111Z " stroke="rgba(50,50,50,1)" stroke-width="2" fill-opacity="1" fill="#ffffff"></path><path id="SvgjsPath1017" d="M0 11.11111111111111L11.11111111111111 0L100 0L100 88.88888888888889L88.88888888888889 100L88.88888888888889 11.11111111111111L0 11.11111111111111ZM88.88888888888889 11.11111111111111L100 0 " stroke="rgba(50,50,50,1)" stroke-width="2" fill-opacity="1" fill="#e6e6e6"></path><path id="SvgjsPath1018" d="M0 0L100 0L100 100L0 100Z " stroke="none" fill="none"></path><g id="SvgjsG1019"><text id="SvgjsText1020" font-family="微软雅黑" text-anchor="middle" font-size="13px" width="47" fill="#323232" font-weight="700" align="middle" font-style="" opacity="1" y="45.605555555555554" transform="rotate(0)"><tspan id="SvgjsTspan1021" dy="16" x="45"><tspan id="SvgjsTspan1022" style="text-decoration:;">Service</tspan></tspan></text></g></g><g id="SvgjsG1023" transform="translate(155.625,25)"><path id="SvgjsPath1024" d="M0 11.11111111111111L88.88888888888889 11.11111111111111L88.88888888888889 100L0 100L0 11.11111111111111Z " stroke="rgba(50,50,50,1)" stroke-width="2" fill-opacity="1" fill="#ffffff"></path><path id="SvgjsPath1025" d="M0 11.11111111111111L11.11111111111111 0L100 0L100 88.88888888888889L88.88888888888889 100L88.88888888888889 11.11111111111111L0 11.11111111111111ZM88.88888888888889 11.11111111111111L100 0 " stroke="rgba(50,50,50,1)" stroke-width="2" fill-opacity="1" fill="#e6e6e6"></path><path id="SvgjsPath1026" d="M0 0L100 0L100 100L0 100Z " stroke="none" fill="none"></path><g id="SvgjsG1027"><text id="SvgjsText1028" font-family="微软雅黑" text-anchor="middle" font-size="13px" width="47" fill="#323232" font-weight="700" align="middle" font-style="" opacity="1" y="45.605555555555554" transform="rotate(0)"><tspan id="SvgjsTspan1029" dy="16" x="45"><tspan id="SvgjsTspan1030" style="text-decoration:;">Service</tspan></tspan></text></g></g><g id="SvgjsG1031" transform="translate(416.875,25)"><path id="SvgjsPath1032" d="M0 11.11111111111111L88.88888888888889 11.11111111111111L88.88888888888889 100L0 100L0 11.11111111111111Z " stroke="rgba(50,50,50,1)" stroke-width="2" fill-opacity="1" fill="#ffffff"></path><path id="SvgjsPath1033" d="M0 11.11111111111111L11.11111111111111 0L100 0L100 88.88888888888889L88.88888888888889 100L88.88888888888889 11.11111111111111L0 11.11111111111111ZM88.88888888888889 11.11111111111111L100 0 " stroke="rgba(50,50,50,1)" stroke-width="2" fill-opacity="1" fill="#e6e6e6"></path><path id="SvgjsPath1034" d="M0 0L100 0L100 100L0 100Z " stroke="none" fill="none"></path><g id="SvgjsG1035"><text id="SvgjsText1036" font-family="微软雅黑" text-anchor="middle" font-size="13px" width="47" fill="#323232" font-weight="700" align="middle" font-style="" opacity="1" y="45.605555555555554" transform="rotate(0)"><tspan id="SvgjsTspan1037" dy="16" x="45"><tspan id="SvgjsTspan1038" style="text-decoration:;">Service</tspan></tspan></text></g></g><g id="SvgjsG1039" transform="translate(547.5,25)"><path id="SvgjsPath1040" d="M0 11.11111111111111L88.88888888888889 11.11111111111111L88.88888888888889 100L0 100L0 11.11111111111111Z " stroke="rgba(50,50,50,1)" stroke-width="2" fill-opacity="1" fill="#ffffff"></path><path id="SvgjsPath1041" d="M0 11.11111111111111L11.11111111111111 0L100 0L100 88.88888888888889L88.88888888888889 100L88.88888888888889 11.11111111111111L0 11.11111111111111ZM88.88888888888889 11.11111111111111L100 0 " stroke="rgba(50,50,50,1)" stroke-width="2" fill-opacity="1" fill="#e6e6e6"></path><path id="SvgjsPath1042" d="M0 0L100 0L100 100L0 100Z " stroke="none" fill="none"></path><g id="SvgjsG1043"><text id="SvgjsText1044" font-family="微软雅黑" text-anchor="middle" font-size="13px" width="47" fill="#323232" font-weight="700" align="middle" font-style="" opacity="1" y="45.605555555555554" transform="rotate(0)"><tspan id="SvgjsTspan1045" dy="16" x="45"><tspan id="SvgjsTspan1046" style="text-decoration:;">Service</tspan></tspan></text></g></g><g id="SvgjsG1047" transform="translate(261.25,229.83333333333331)"><path id="SvgjsPath1048" d="M0 11.11111111111111L133.33333333333331 11.11111111111111L133.33333333333331 100L0 100L0 11.11111111111111Z " stroke="rgba(50,50,50,1)" stroke-width="2" fill-opacity="1" fill="#ffffff"></path><path id="SvgjsPath1049" d="M0 11.11111111111111L16.666666666666664 0L150 0L150 88.88888888888889L133.33333333333331 100L133.33333333333331 11.11111111111111L0 11.11111111111111ZM133.33333333333331 11.11111111111111L150 0 " stroke="rgba(50,50,50,1)" stroke-width="2" fill-opacity="1" fill="#e6e6e6"></path><path id="SvgjsPath1050" d="M0 0L150 0L150 100L0 100Z " stroke="none" fill="none"></path><g id="SvgjsG1051"><text id="SvgjsText1052" font-family="微软雅黑" text-anchor="middle" font-size="13px" width="99" fill="#323232" font-weight="700" align="middle" font-style="" opacity="1" y="45.605555555555554" transform="rotate(0)"><tspan id="SvgjsTspan1053" dy="16" x="67.5"><tspan id="SvgjsTspan1054" style="text-decoration:;">elastic-transfer</tspan></tspan></text></g></g><g id="SvgjsG1055"><path id="SvgjsPath1056" d="M75 125L75 177.41666666666663L336.25 177.41666666666663L336.25 229.83333333333331 " stroke="#323232" stroke-width="2" fill="none" marker-end="url(#SvgjsMarker1057)"></path></g><g id="SvgjsG1059"><path id="SvgjsPath1060" d="M205.625 125L205.625 177.41666666666663L336.25 177.41666666666663L336.25 229.83333333333331 " stroke="#323232" stroke-width="2" fill="none" marker-end="url(#SvgjsMarker1061)"></path></g><g id="SvgjsG1063"><path id="SvgjsPath1064" d="M336.25 125L336.25 177.41666666666663L336.25 177.41666666666663L336.25 229.83333333333331 " stroke="#323232" stroke-width="2" fill="none" marker-end="url(#SvgjsMarker1065)"></path></g><g id="SvgjsG1067"><path id="SvgjsPath1068" d="M466.875 125L466.875 177.41666666666663L336.25 177.41666666666663L336.25 229.83333333333331 " stroke="#323232" stroke-width="2" fill="none" marker-end="url(#SvgjsMarker1069)"></path></g><g id="SvgjsG1071"><path id="SvgjsPath1072" d="M597.5 125L597.5 177.41666666666663L336.25 177.41666666666663L336.25 229.83333333333331 " stroke="#323232" stroke-width="2" fill="none" marker-end="url(#SvgjsMarker1073)"></path><rect id="SvgjsRect1075" width="62" height="16" x="305" y="171.5" fill="#ffffff"></rect><text id="SvgjsText1076" font-family="微软雅黑" text-anchor="middle" font-size="13px" width="62" fill="#323232" font-weight="400" align="top" font-style="" opacity="1" y="169.55" transform="rotate(0)"><tspan id="SvgjsTspan1077" dy="16" x="336"><tspan id="SvgjsTspan1078" style="text-decoration:;">push data</tspan></tspan></text></g><g id="SvgjsG1079" transform="translate(256.25,434.66666666666663)"><path id="SvgjsPath1080" d="M0 50L80 0L160 50L80 100Z " stroke="rgba(50,50,50,1)" stroke-width="2" fill-opacity="1" fill="#ffffff"></path><g id="SvgjsG1081"><text id="SvgjsText1082" font-family="微软雅黑" text-anchor="middle" font-size="13px" width="91" fill="#323232" font-weight="400" align="middle" font-style="" opacity="1" y="32.55" transform="rotate(0)"><tspan id="SvgjsTspan1083" dy="16" x="80.5"><tspan id="SvgjsTspan1084" style="text-decoration:;">If elasticsearch</tspan></tspan><tspan id="SvgjsTspan1085" dy="16" x="80.5"><tspan id="SvgjsTspan1086" style="text-decoration:;">online</tspan></tspan></text></g></g><g id="SvgjsG1087"><path id="SvgjsPath1088" d="M336.25 329.8333333333333L336.25 382.25L336.25 382.25L336.25 434.66666666666663 " stroke="#323232" stroke-width="2" fill="none" marker-end="url(#SvgjsMarker1089)"></path></g><g id="SvgjsG1091" transform="translate(547.5,434.66666666666663)"><path id="SvgjsPath1092" d="M0 11.11111111111111L88.88888888888889 11.11111111111111L88.88888888888889 100L0 100L0 11.11111111111111Z " stroke="rgba(50,50,50,1)" stroke-width="2" fill-opacity="1" fill="#ffffff"></path><path id="SvgjsPath1093" d="M0 11.11111111111111L11.11111111111111 0L100 0L100 88.88888888888889L88.88888888888889 100L88.88888888888889 11.11111111111111L0 11.11111111111111ZM88.88888888888889 11.11111111111111L100 0 " stroke="rgba(50,50,50,1)" stroke-width="2" fill-opacity="1" fill="#e6e6e6"></path><path id="SvgjsPath1094" d="M0 0L100 0L100 100L0 100Z " stroke="none" fill="none"></path><g id="SvgjsG1095"><text id="SvgjsText1096" font-family="微软雅黑" text-anchor="middle" font-size="13px" width="24" fill="#323232" font-weight="700" align="middle" font-style="" opacity="1" y="45.605555555555554" transform="rotate(0)"><tspan id="SvgjsTspan1097" dy="16" x="45"><tspan id="SvgjsTspan1098" style="text-decoration:;">MQ</tspan></tspan></text></g></g><g id="SvgjsG1099"><path id="SvgjsPath1100" d="M416.25 484.66666666666663L481.875 484.66666666666663L481.875 484.66666666666663L547.5 484.66666666666663 " stroke-dasharray="8,5" stroke="#323232" stroke-width="2" fill="none" marker-end="url(#SvgjsMarker1101)"></path><rect id="SvgjsRect1103" width="19" height="16" x="472.375" y="476.66666666666663" fill="#ffffff"></rect><text id="SvgjsText1104" font-family="微软雅黑" text-anchor="middle" font-size="13px" width="19" fill="#323232" font-weight="400" align="top" font-style="" opacity="1" y="474.71666666666664" transform="rotate(0)"><tspan id="SvgjsTspan1105" dy="16" x="481.875"><tspan id="SvgjsTspan1106" style="text-decoration:;">No</tspan></tspan></text></g><g id="SvgjsG1107" transform="translate(261.25,639.5)"><path id="SvgjsPath1108" d="M0 11.11111111111111L133.33333333333331 11.11111111111111L133.33333333333331 100L0 100L0 11.11111111111111Z " stroke="rgba(50,50,50,1)" stroke-width="2" fill-opacity="1" fill="#ffffff"></path><path id="SvgjsPath1109" d="M0 11.11111111111111L16.666666666666664 0L150 0L150 88.88888888888889L133.33333333333331 100L133.33333333333331 11.11111111111111L0 11.11111111111111ZM133.33333333333331 11.11111111111111L150 0 " stroke="rgba(50,50,50,1)" stroke-width="2" fill-opacity="1" fill="#e6e6e6"></path><path id="SvgjsPath1110" d="M0 0L150 0L150 100L0 100Z " stroke="none" fill="none"></path><g id="SvgjsG1111"><text id="SvgjsText1112" font-family="微软雅黑" text-anchor="middle" font-size="13px" width="84" fill="#323232" font-weight="700" align="middle" font-style="" opacity="1" y="45.605555555555554" transform="rotate(0)"><tspan id="SvgjsTspan1113" dy="16" x="67.5"><tspan id="SvgjsTspan1114" style="text-decoration:;">elasticsearch</tspan></tspan></text></g></g><g id="SvgjsG1115"><path id="SvgjsPath1116" d="M336.25 534.6666666666666L336.25 587.0833333333333L336.25 587.0833333333333L336.25 639.5 " stroke="#323232" stroke-width="2" fill="none" marker-end="url(#SvgjsMarker1117)"></path><rect id="SvgjsRect1119" width="62" height="16" x="305.24999999999994" y="579.0833333333333" fill="#ffffff"></rect><text id="SvgjsText1120" font-family="微软雅黑" text-anchor="middle" font-size="13px" width="62" fill="#323232" font-weight="400" align="top" font-style="" opacity="1" y="577.1333333333332" transform="rotate(0)"><tspan id="SvgjsTspan1121" dy="16" x="336.24999999999994"><tspan id="SvgjsTspan1122" style="text-decoration:;">Push data</tspan></tspan></text></g><g id="SvgjsG1123" transform="translate(522.5,229.83333333333331)"><path id="SvgjsPath1124" d="M18 0Q9 0 9 9L9 41Q9 50 0 50Q9 50 9 59L9 91Q9 100 18 100 " stroke="rgba(50,50,50,1)" stroke-width="2" fill="none"></path><path id="SvgjsPath1125" d="M132 100Q141 100 141 91L141 59Q141 50 150 50Q141 50 141 41L141 9Q141 0 132 0 " stroke="rgba(50,50,50,1)" stroke-width="2" fill="none"></path><path id="SvgjsPath1126" d="M0 0L150 0L150 100L0 100Z " stroke="none" fill="none"></path><g id="SvgjsG1127"><text id="SvgjsText1128" font-family="微软雅黑" text-anchor="middle" font-size="13px" width="119" fill="#323232" font-weight="400" align="middle" font-style="" opacity="1" y="32.05" transform="rotate(0)"><tspan id="SvgjsTspan1129" dy="16" x="75.5"><tspan id="SvgjsTspan1130" style="text-decoration:;">Define the pipeline</tspan></tspan><tspan id="SvgjsTspan1131" dy="16" x="75.5"><tspan id="SvgjsTspan1132" style="text-decoration:;"> Validate Data</tspan></tspan></text></g></g><g id="SvgjsG1133"><path id="SvgjsPath1134" d="M411.25 279.8333333333333L466.875 279.8333333333333L466.875 279.8333333333333L522.5 279.8333333333333 " stroke-dasharray="8,5" stroke="#323232" stroke-width="2" fill="none" marker-end="url(#SvgjsMarker1135)"></path></g></svg>